<svg width="105" height="27" viewBox="0 0 105 27" fill="none" xmlns="http://www.w3.org/2000/svg">
<path d="M33.5899 20.9196L34.9013 17.8736C36.3185 18.9312 38.2009 19.4813 40.0624 19.4813C41.4373 19.4813 42.3046 18.9524 42.3046 18.1487C42.2834 15.9066 34.0763 17.6621 34.0129 12.0356C33.9917 9.18009 36.5302 6.98023 40.1259 6.98023C42.2623 6.98023 44.3987 7.50894 45.9216 8.71462L44.6948 11.8241C43.2988 10.9356 41.5644 10.3012 39.9144 10.3012C38.7933 10.3012 38.0531 10.8299 38.0531 11.5068C38.0742 13.7067 46.3448 12.501 46.4294 17.8736C46.4294 20.7927 43.9546 22.8445 40.401 22.8445C37.7991 22.8445 35.4089 22.231 33.5899 20.9196ZM83.9112 16.7737L87.5282 18.7832C86.1745 21.2157 83.594 22.8445 80.6114 22.8445C76.2328 22.8445 72.6792 19.291 72.6792 14.9124C72.6792 10.5338 76.2328 6.98023 80.6114 6.98023C83.5728 6.98023 86.1745 8.63002 87.5282 11.0416L83.9112 13.0509C83.2554 11.9087 82.0286 11.1262 80.6114 11.1262C78.5173 11.1262 76.8252 12.8183 76.8252 14.9124C76.8252 17.0065 78.5173 18.6986 80.6114 18.6986C82.0286 18.6986 83.2554 17.9159 83.911 16.7737H83.9112ZM48.2483 0.401794H52.775V22.5482H48.2483V0.401794ZM89.3049 0.401794H93.8315V13.4104L98.9503 7.29746H104.492L98.1678 14.6584L105 22.5482H99.2043L93.8315 15.9066V22.5482H89.3049V0.401794ZM66.2279 16.8162V13.072C65.5721 11.9721 64.2184 11.1262 62.6955 11.1262C60.6012 11.1262 58.9093 12.8183 58.9093 14.9124C58.9093 17.0065 60.6012 18.6986 62.6955 18.6986C64.2184 18.6986 65.5721 17.8947 66.2279 16.816V16.8162ZM66.2279 7.29766H70.7545V22.5273H66.2279V20.7295C65.4875 21.9774 63.6472 22.8447 61.7224 22.8447C57.7457 22.8447 54.6153 19.2912 54.6153 14.8914C54.6153 10.4917 57.7457 6.98044 61.7224 6.98044C63.6472 6.98044 65.4875 7.84773 66.2279 9.0957V7.29725V7.29766Z" fill="white" fill-opacity="0.5"/>
<path d="M5.60539 16.7947C5.60539 18.3388 4.35742 19.587 2.81316 19.587C2.44639 19.5873 2.08315 19.5153 1.74424 19.3751C1.40532 19.2349 1.09738 19.0293 0.838046 18.7699C0.57871 18.5106 0.373069 18.2026 0.232893 17.8637C0.0927177 17.5248 0.0207595 17.1615 0.0211376 16.7947C0.0211376 15.2507 1.26911 14.0027 2.81316 14.0027H5.60539V16.7947ZM7.0014 16.7947C7.0014 15.2507 8.24937 14.0027 9.79342 14.0027C11.3375 14.0027 12.5856 15.2507 12.5856 16.7947V23.775C12.5856 25.3191 11.3377 26.5672 9.79342 26.5672C9.42667 26.5676 9.06345 26.4956 8.72456 26.3553C8.38567 26.2151 8.07775 26.0095 7.81844 25.7501C7.55912 25.4908 7.3535 25.1828 7.21334 24.8439C7.07318 24.505 7.00122 24.1418 7.0016 23.775V16.7947H7.0014Z" fill="white" fill-opacity="0.5"/>
<path d="M9.79343 5.58425C9.42668 5.58457 9.06346 5.51257 8.72457 5.37235C8.38568 5.23214 8.07776 5.02647 7.81845 4.76712C7.55914 4.50777 7.35351 4.19983 7.21335 3.86091C7.07319 3.522 7.00124 3.15877 7.00161 2.79202C7.00141 1.24797 8.24938 0 9.79343 0C11.3375 0 12.5857 1.24797 12.5857 2.79202V5.58425H9.79343ZM9.79343 7.00141C11.3375 7.00141 12.5857 8.24938 12.5857 9.79343C12.5857 11.3375 11.3377 12.5857 9.79343 12.5857H2.79202C2.42525 12.586 2.06202 12.514 1.7231 12.3738C1.38418 12.2336 1.07625 12.028 0.81691 11.7686C0.557574 11.5092 0.351933 11.2013 0.211757 10.8624C0.0715815 10.5234 -0.000376659 10.1602 1.48264e-06 9.79343C1.48264e-06 8.24938 1.24797 7.00161 2.79202 7.00161H9.79364L9.79343 7.00141Z" fill="white" fill-opacity="0.5"/>
<path d="M20.9831 9.79343C20.9831 8.24938 22.231 7.00141 23.7751 7.00141C25.3191 7.00141 26.5673 8.24938 26.5673 9.79343C26.5673 11.3375 25.3193 12.5857 23.7751 12.5857H20.9831V9.79343ZM19.5868 9.79343C19.5868 11.3375 18.3391 12.5857 16.7948 12.5857C16.4281 12.586 16.0648 12.514 15.7259 12.3738C15.387 12.2336 15.079 12.028 14.8197 11.7686C14.5604 11.5092 14.3547 11.2013 14.2146 10.8624C14.0744 10.5234 14.0024 10.1602 14.0028 9.79343V2.79202C14.0028 1.24797 15.2508 0 16.7948 0C18.3389 0 19.5871 1.24797 19.5871 2.79202V9.79363L19.5868 9.79343Z" fill="white" fill-opacity="0.5"/>
<path d="M16.7948 20.983C18.3389 20.983 19.5871 22.231 19.5871 23.775C19.5871 25.3191 18.3391 26.5672 16.7948 26.5672C16.4281 26.5676 16.0648 26.4956 15.7259 26.3554C15.387 26.2152 15.079 26.0095 14.8197 25.7502C14.5604 25.4908 14.3547 25.1829 14.2146 24.8439C14.0744 24.505 14.0024 24.1418 14.0028 23.775V20.983H16.7948ZM16.7948 19.5868C16.4281 19.5871 16.0649 19.5151 15.7259 19.375C15.387 19.2348 15.0791 19.0291 14.8198 18.7698C14.5605 18.5105 14.3548 18.2025 14.2146 17.8636C14.0744 17.5247 14.0025 17.1615 14.0028 16.7947C14.0028 15.2507 15.2508 14.0027 16.7948 14.0027H23.7964C25.3405 14.0027 26.5885 15.2507 26.5885 16.7947C26.5885 18.3388 25.3405 19.587 23.7962 19.587H16.7948V19.5868Z" fill="white" fill-opacity="0.5"/>
</svg>
