<svg width="11" height="14" viewBox="0 0 11 14" fill="none" xmlns="http://www.w3.org/2000/svg">
<path d="M5.5 0C4.04182 0.00165421 2.64383 0.581648 1.61274 1.61274C0.581648 2.64383 0.00165421 4.04182 0 5.5C0 10.2063 5 13.7625 5.2125 13.9125C5.29766 13.9692 5.39769 13.9995 5.5 13.9995C5.60231 13.9995 5.70234 13.9692 5.7875 13.9125C6 13.7625 11 10.2063 11 5.5C10.9983 4.04182 10.4184 2.64383 9.38726 1.61274C8.35617 0.581648 6.95818 0.00165421 5.5 0ZM5.5 3.5C5.89556 3.5 6.28224 3.6173 6.61114 3.83706C6.94004 4.05682 7.19638 4.36918 7.34776 4.73463C7.49913 5.10009 7.53874 5.50222 7.46157 5.89018C7.3844 6.27814 7.19392 6.63451 6.91421 6.91421C6.63451 7.19392 6.27814 7.3844 5.89018 7.46157C5.50222 7.53874 5.10009 7.49913 4.73463 7.34776C4.36918 7.19638 4.05682 6.94004 3.83706 6.61114C3.6173 6.28224 3.5 5.89556 3.5 5.5C3.5 4.96957 3.71071 4.46086 4.08579 4.08579C4.46086 3.71071 4.96957 3.5 5.5 3.5Z" fill="#F1BD4C"/>
</svg>
