<svg width="208" height="40" viewBox="0 0 208 40" fill="none" xmlns="http://www.w3.org/2000/svg">
<circle cx="20" cy="20" r="20" fill="white" fill-opacity="0.16"/>
<path d="M17.3489 30.5263V20.6478H14.7368V17.091H17.3489V14.0531C17.3489 11.6659 18.8919 9.47363 22.4472 9.47363C23.8867 9.47363 24.9511 9.61163 24.9511 9.61163L24.8673 12.933C24.8673 12.933 23.7817 12.9225 22.5971 12.9225C21.315 12.9225 21.1096 13.5133 21.1096 14.4939V17.091H24.9692L24.8012 20.6478H21.1096V30.5263H17.3489Z" fill="white"/>
<circle cx="76" cy="20" r="20" fill="white" fill-opacity="0.16"/>
<path d="M86.5263 13.6106C85.7521 13.9446 84.9096 14.185 84.0418 14.2786C84.9428 13.7433 85.6175 12.8977 85.9393 11.9003C85.0939 12.4033 84.1677 12.7559 83.2018 12.9427C82.7981 12.5111 82.3099 12.1673 81.7675 11.9327C81.2251 11.6981 80.6403 11.5777 80.0493 11.579C77.6584 11.579 75.7356 13.517 75.7356 15.8953C75.7356 16.2292 75.7761 16.5632 75.8419 16.8845C72.2618 16.6973 69.0689 14.987 66.9462 12.3684C66.5594 13.029 66.3567 13.7812 66.3592 14.5468C66.3592 16.0445 67.1207 17.3652 68.282 18.142C67.5977 18.115 66.9293 17.9269 66.3314 17.5929V17.6461C66.3314 19.7435 67.814 21.4816 69.7899 21.8814C69.4189 21.9778 69.0373 22.0271 68.6539 22.0281C68.3731 22.0281 68.1075 22.0003 67.8393 21.9624C68.3858 23.6727 69.9772 24.9149 71.8722 24.9554C70.3896 26.1167 68.5325 26.7998 66.516 26.7998C66.1542 26.7998 65.8203 26.7872 65.4737 26.7467C67.3864 27.9738 69.6559 28.6822 72.0999 28.6822C80.0342 28.6822 84.3757 22.1091 84.3757 16.4038C84.3757 16.2166 84.3757 16.0294 84.3631 15.8421C85.2031 15.2273 85.9393 14.4658 86.5263 13.6106Z" fill="white"/>
<circle cx="132" cy="20" r="20" fill="white" fill-opacity="0.16"/>
<path d="M131.471 17.1916C129.635 17.1916 128.136 18.6901 128.136 20.5264C128.136 22.3626 129.635 23.8611 131.471 23.8611C133.307 23.8611 134.806 22.3626 134.806 20.5264C134.806 18.6901 133.307 17.1916 131.471 17.1916ZM141.473 20.5264C141.473 19.1454 141.485 17.777 141.408 16.3986C141.33 14.7975 140.965 13.3765 139.794 12.2057C138.621 11.0325 137.203 10.6697 135.601 10.5922C134.221 10.5146 132.852 10.5271 131.474 10.5271C130.093 10.5271 128.724 10.5146 127.346 10.5922C125.745 10.6697 124.324 11.035 123.153 12.2057C121.98 13.379 121.617 14.7975 121.539 16.3986C121.462 17.7795 121.474 19.1479 121.474 20.5264C121.474 21.9048 121.462 23.2757 121.539 24.6542C121.617 26.2552 121.982 27.6762 123.153 28.847C124.326 30.0203 125.745 30.383 127.346 30.4606C128.727 30.5381 130.095 30.5256 131.474 30.5256C132.855 30.5256 134.223 30.5381 135.601 30.4606C137.203 30.383 138.623 30.0178 139.794 28.847C140.968 27.6737 141.33 26.2552 141.408 24.6542C141.488 23.2757 141.473 21.9073 141.473 20.5264V20.5264ZM131.471 25.6573C128.632 25.6573 126.34 23.3658 126.34 20.5264C126.34 17.6869 128.632 15.3954 131.471 15.3954C134.311 15.3954 136.602 17.6869 136.602 20.5264C136.602 23.3658 134.311 25.6573 131.471 25.6573ZM136.812 16.3836C136.149 16.3836 135.614 15.8482 135.614 15.1853C135.614 14.5223 136.149 13.9869 136.812 13.9869C137.475 13.9869 138.011 14.5223 138.011 15.1853C138.011 15.3427 137.98 15.4986 137.92 15.6441C137.86 15.7895 137.771 15.9217 137.66 16.033C137.549 16.1443 137.417 16.2326 137.271 16.2928C137.126 16.3529 136.97 16.3838 136.812 16.3836V16.3836Z" fill="white"/>
<circle cx="188" cy="20" r="20" fill="white" fill-opacity="0.16"/>
<path d="M179.579 17.0254C179.579 16.1152 179.738 15.2554 180.052 14.4528C180.351 13.6733 180.796 12.9578 181.363 12.3446C181.929 11.7394 182.576 11.2161 183.286 10.7898C184.015 10.3489 184.804 10.0163 185.629 9.80238C186.463 9.58328 187.322 9.47279 188.185 9.47364C189.517 9.47364 190.758 9.75559 191.908 10.3171C193.043 10.8685 194.009 11.7145 194.705 12.7669C195.423 13.8374 195.78 15.0483 195.78 16.3984C195.78 17.2079 195.7 18 195.538 18.7745C195.378 19.5485 195.124 20.3001 194.782 21.0125C194.456 21.7021 194.029 22.3396 193.516 22.9043C193.001 23.4599 192.376 23.9036 191.682 24.2076C190.928 24.5379 190.112 24.7042 189.289 24.6954C188.717 24.6954 188.146 24.5609 187.582 24.2906C187.018 24.0215 186.614 23.6518 186.37 23.178C186.285 23.5068 186.168 23.9818 186.012 24.603C185.863 25.223 185.762 25.6231 185.718 25.8045C185.671 25.9847 185.584 26.2853 185.458 26.7018C185.372 27.0099 185.262 27.3107 185.129 27.6015L184.727 28.39C184.553 28.7284 184.358 29.0558 184.144 29.3704C183.932 29.6769 183.67 30.0431 183.358 30.4643L183.184 30.5263L183.068 30.3999C182.942 29.0744 182.878 28.2812 182.878 28.0191C182.878 27.2435 182.971 26.3731 183.153 25.4067C183.332 24.4415 183.615 23.2283 183.995 21.7694C184.376 20.3117 184.593 19.4542 184.652 19.2003C184.384 18.654 184.248 17.9403 184.248 17.0629C184.248 16.3621 184.467 15.7058 184.906 15.0881C185.346 14.4727 185.901 14.165 186.575 14.165C187.091 14.165 187.491 14.3358 187.778 14.6786C188.066 15.0202 188.206 15.4507 188.206 15.976C188.206 16.5329 188.021 17.339 187.649 18.3931C187.277 19.4483 187.092 20.2357 187.092 20.7586C187.092 21.2886 187.282 21.732 187.661 22.0795C188.035 22.4271 188.53 22.6155 189.04 22.6048C189.503 22.6048 189.933 22.4995 190.332 22.2877C190.724 22.0822 191.064 21.7887 191.325 21.4302C191.893 20.6514 192.297 19.766 192.515 18.8271C192.627 18.3334 192.714 17.8643 192.767 17.4232C192.825 16.9798 192.849 16.561 192.849 16.1632C192.849 14.7043 192.386 13.5672 191.465 12.7529C190.54 11.9386 189.335 11.5339 187.853 11.5339C186.167 11.5339 184.757 12.079 183.628 13.1729C182.498 14.2633 181.929 15.6496 181.929 17.3308C181.929 17.7017 181.986 18.0596 182.092 18.4059C182.196 18.7511 182.31 19.026 182.432 19.2296C182.554 19.4296 182.669 19.625 182.773 19.8052C182.878 19.9853 182.933 20.114 182.933 20.1912C182.933 20.4276 182.871 20.7352 182.746 21.1155C182.616 21.4957 182.463 21.6852 182.278 21.6852C182.26 21.6852 182.188 21.6723 182.062 21.6454C181.624 21.5148 181.229 21.2706 180.916 20.9376C180.584 20.5926 180.323 20.1866 180.145 19.742C179.968 19.299 179.831 18.8414 179.733 18.3744C179.629 17.9325 179.577 17.4796 179.579 17.0254V17.0254Z" fill="white"/>
</svg>
