<svg width="40" height="27" viewBox="0 0 40 27" fill="none" xmlns="http://www.w3.org/2000/svg">
<path fill-rule="evenodd" clip-rule="evenodd" d="M20.5412 5.60715C22.8611 2.46985 25.4259 0 28.7057 0C34.8978 0 39.9975 7.88201 40 17.2664C40 22.9911 37.5351 26.5783 33.1079 26.5783C29.2507 26.5783 27.1208 24.4135 23.2985 18.0189L21.6311 15.2115L21.3362 14.7191C20.9013 13.9842 20.4597 13.2534 20.0112 12.5267L17.0664 17.7264C12.8842 25.0384 10.5293 26.5783 7.25954 26.5783C2.71483 26.5783 0 23.0411 0 17.4314C0 8.46947 4.98719 0 11.4943 0C12.2917 0 13.0567 0.0974939 13.8041 0.304981C14.5791 0.519967 15.3315 0.854947 16.0865 1.32242C17.5289 2.21986 18.9713 3.60977 20.5412 5.60715ZM24.331 11.1668C23.701 10.1419 23.0961 9.19942 22.5136 8.33448L22.4986 8.31448C24.611 5.05218 26.3558 3.42979 28.4282 3.42979C32.7354 3.42979 36.1827 9.77189 36.1827 17.5614C36.1827 20.5312 35.2078 22.2536 33.1954 22.2536C31.263 22.2536 30.3406 20.9787 26.6708 15.0791L24.3285 11.1668H24.331ZM12.1142 4.38973C13.9266 4.63971 15.5765 5.97463 17.9639 9.39191C16.5864 11.5012 15.2239 13.6203 13.8766 15.749C10.4843 21.0637 9.31192 22.2561 7.42453 22.2561C5.48216 22.2561 4.32473 20.5512 4.32473 17.5064C4.32473 11.0018 7.56953 4.34723 11.4393 4.34723C11.6668 4.34723 11.8918 4.36223 12.1142 4.39222V4.38973Z" fill="white" fill-opacity="0.5"/>
</svg>
