<svg width="48" height="48" viewBox="0 0 48 48" fill="none" xmlns="http://www.w3.org/2000/svg">
<rect width="48" height="48" rx="24" fill="#214674"/>
<path d="M32.9437 22.6874L17.1469 13.8467C16.8836 13.6932 16.5806 13.6219 16.2765 13.642C15.9725 13.662 15.6814 13.7725 15.4406 13.9592C15.1947 14.1532 15.0162 14.4198 14.9303 14.721C14.8445 15.0223 14.8558 15.3429 14.9625 15.6374L17.5969 22.9967C17.6235 23.0701 17.6719 23.1336 17.7355 23.1788C17.7991 23.2241 17.875 23.2488 17.9531 23.2499H24.7219C24.9165 23.2468 25.105 23.3176 25.2494 23.4481C25.3939 23.5786 25.4834 23.759 25.5 23.953C25.5064 24.0553 25.4917 24.1579 25.4569 24.2544C25.4221 24.3509 25.3679 24.4392 25.2976 24.5139C25.2273 24.5886 25.1424 24.648 25.0483 24.6886C24.9541 24.7292 24.8525 24.7501 24.75 24.7499H17.9531C17.875 24.7509 17.7991 24.7756 17.7355 24.8209C17.6719 24.8661 17.6235 24.9296 17.5969 25.003L14.9625 32.3624C14.8834 32.5891 14.8596 32.8314 14.893 33.0691C14.9264 33.3069 15.016 33.5333 15.1544 33.7295C15.2929 33.9256 15.4761 34.086 15.6889 34.1971C15.9017 34.3083 16.138 34.3671 16.3781 34.3686C16.6336 34.3675 16.8848 34.303 17.1094 34.1811L32.9437 25.3124C33.1757 25.1806 33.3686 24.9898 33.5028 24.7592C33.637 24.5286 33.7078 24.2666 33.7078 23.9999C33.7078 23.7331 33.637 23.4711 33.5028 23.2405C33.3686 23.01 33.1757 22.8191 32.9437 22.6874V22.6874Z" fill="white"/>
</svg>
