<svg width="48" height="48" viewBox="0 0 48 48" fill="none" xmlns="http://www.w3.org/2000/svg">
<rect width="48" height="48" rx="24" fill="#DFE9F6"/>
<path d="M32.25 18.75H15.75C15.3358 18.75 15 19.0858 15 19.5V31.5C15 31.9142 15.3358 32.25 15.75 32.25H32.25C32.6642 32.25 33 31.9142 33 31.5V19.5C33 19.0858 32.6642 18.75 32.25 18.75Z" stroke="#214674" stroke-width="1.5" stroke-linecap="round" stroke-linejoin="round"/>
<path d="M27.75 18.75V17.25C27.75 16.8522 27.592 16.4706 27.3107 16.1893C27.0294 15.908 26.6478 15.75 26.25 15.75H21.75C21.3522 15.75 20.9706 15.908 20.6893 16.1893C20.408 16.4706 20.25 16.8522 20.25 17.25V18.75" stroke="#214674" stroke-width="1.5" stroke-linecap="round" stroke-linejoin="round"/>
<path d="M33 23.8406C30.2646 25.4225 27.1599 26.2537 24 26.25C20.8395 26.2582 17.7336 25.4267 15 23.8406" stroke="#214674" stroke-width="1.5" stroke-linecap="round" stroke-linejoin="round"/>
<path d="M22.875 23.25H25.125" stroke="#214674" stroke-width="1.5" stroke-linecap="round" stroke-linejoin="round"/>
</svg>
