<svg width="24" height="24" viewBox="0 0 24 24" fill="none" xmlns="http://www.w3.org/2000/svg">
<path fill-rule="evenodd" clip-rule="evenodd" d="M2.96791e-07 2.00509C2.96791e-07 1.47331 0.21125 0.963304 0.587276 0.587278C0.963302 0.211252 1.4733 2.67306e-06 2.00508 2.67306e-06H21.9926C22.2562 -0.000427745 22.5172 0.0511257 22.7608 0.151711C23.0044 0.252297 23.2257 0.399939 23.4122 0.586186C23.5986 0.772432 23.7465 0.993625 23.8474 1.2371C23.9482 1.48058 24.0001 1.74155 23.9999 2.00509V21.9927C24.0002 22.2562 23.9485 22.5173 23.8478 22.7609C23.7471 23.0045 23.5994 23.2258 23.413 23.4123C23.2267 23.5987 23.0054 23.7466 22.7619 23.8474C22.5184 23.9482 22.2573 24.0001 21.9937 23.9999H2.00508C1.74168 23.9999 1.48086 23.948 1.23752 23.8472C0.99418 23.7464 0.773093 23.5986 0.58689 23.4123C0.400686 23.226 0.253016 23.0048 0.152315 22.7614C0.0516143 22.518 -0.000143013 22.2571 2.96791e-07 21.9937V2.00509ZM9.4996 9.15052H12.7494V10.7825C13.2185 9.84433 14.4185 8.99997 16.2218 8.99997C19.6788 8.99997 20.4981 10.8687 20.4981 14.2974V20.6487H16.9996V15.0785C16.9996 13.1258 16.5305 12.024 15.3392 12.024C13.6865 12.024 12.9992 13.212 12.9992 15.0785V20.6487H9.4996V9.15052ZM3.49962 20.4992H6.99925V8.99997H3.49962V20.4981V20.4992ZM7.49997 5.24944C7.50657 5.54908 7.45325 5.84702 7.34314 6.12578C7.23304 6.40453 7.06836 6.65849 6.85877 6.87274C6.64919 7.08699 6.39892 7.25722 6.12266 7.37344C5.84639 7.48966 5.5497 7.54952 5.24998 7.54952C4.95027 7.54952 4.65357 7.48966 4.37731 7.37344C4.10104 7.25722 3.85077 7.08699 3.64119 6.87274C3.4316 6.65849 3.26693 6.40453 3.15682 6.12578C3.04671 5.84702 2.99339 5.54908 2.99999 5.24944C3.01294 4.66128 3.25568 4.10158 3.67623 3.69019C4.09677 3.27881 4.66168 3.04845 5.24998 3.04845C5.83828 3.04845 6.40319 3.27881 6.82374 3.69019C7.24428 4.10158 7.48702 4.66128 7.49997 5.24944V5.24944Z" fill="white" fill-opacity="0.5"/>
</svg>
