<svg width="96" height="31" viewBox="0 0 96 31" fill="none" xmlns="http://www.w3.org/2000/svg">
<path d="M92.5776 18.9315L95.2325 20.6819C94.3708 21.9371 92.31 24.0906 88.7469 24.0906C84.3224 24.0906 81.0274 20.705 81.0274 16.3981C81.0274 11.815 84.3574 8.70579 88.3744 8.70579C92.4147 8.70579 94.394 11.884 95.0346 13.5998L95.3839 14.4751L84.9745 18.7358C85.7663 20.2789 87.0006 21.062 88.7469 21.062C90.4936 21.062 91.7044 20.2098 92.5776 18.9315V18.9315ZM84.4157 16.1565L91.3668 13.3005C90.9826 12.3448 89.8417 11.6655 88.4791 11.6655C86.7444 11.6655 84.3342 13.1855 84.4157 16.1565Z" fill="white" fill-opacity="0.5"/>
<path d="M76.0091 0.863929H79.3622V23.3883H76.0091V0.863744V0.863929Z" fill="white" fill-opacity="0.5"/>
<path d="M70.7229 9.30472H73.9598V22.9852C73.9598 28.6622 70.5715 30.9999 66.566 30.9999C62.7936 30.9999 60.5233 28.4896 59.6732 26.4514L62.6422 25.2306C63.1777 26.4858 64.4702 27.9714 66.566 27.9714C69.1392 27.9714 70.7229 26.3937 70.7229 23.4458V22.3404H70.6065C69.8379 23.2615 68.3708 24.0906 66.5079 24.0906C62.6189 24.0906 59.0558 20.7396 59.0558 16.4214C59.0558 12.0799 62.6189 8.69452 66.5079 8.69452C68.3592 8.69452 69.8379 9.51213 70.6065 10.4103H70.7229V9.30491V9.30472ZM70.9556 16.4214C70.9556 13.7037 69.1276 11.723 66.7989 11.723C64.4469 11.723 62.4675 13.7037 62.4675 16.4214C62.4675 19.1044 64.4469 21.0505 66.7989 21.0505C69.1278 21.0622 70.9558 19.1044 70.9558 16.4214H70.9556Z" fill="white" fill-opacity="0.5"/>
<path d="M40.6475 16.3635C40.6475 20.797 37.1546 24.0558 32.8697 24.0558C28.585 24.0558 25.0918 20.7856 25.0918 16.3635C25.0918 11.9071 28.585 8.65974 32.8697 8.65974C37.1546 8.65974 40.6475 11.9071 40.6475 16.3635ZM37.2477 16.3635C37.2477 13.5999 35.2216 11.6997 32.8697 11.6997C30.5178 11.6997 28.4917 13.5999 28.4917 16.3635C28.4917 19.1042 30.5178 21.0274 32.8697 21.0274C35.2217 21.0274 37.2477 19.1042 37.2477 16.3635Z" fill="white" fill-opacity="0.5"/>
<path d="M57.6356 16.3981C57.6356 20.8316 54.1424 24.0904 49.8577 24.0904C45.5728 24.0904 42.0798 20.8315 42.0798 16.3981C42.0798 11.9417 45.5728 8.70579 49.8577 8.70579C54.1424 8.70579 57.6356 11.9302 57.6356 16.3981V16.3981ZM54.2239 16.3981C54.2239 13.6345 52.198 11.7342 49.8459 11.7342C47.494 11.7342 45.468 13.6345 45.468 16.3981C45.468 19.1387 47.494 21.062 49.8459 21.062C52.2096 21.062 54.2239 19.1273 54.2239 16.3981Z" fill="white" fill-opacity="0.5"/>
<path d="M12.3072 20.7165C7.42852 20.7165 3.60959 16.8243 3.60959 11.9992C3.60959 7.17435 7.42852 3.28208 12.3072 3.28208C14.9387 3.28208 16.8598 4.3069 18.2803 5.61974L20.6208 3.30518C18.6414 1.42818 15.9983 0 12.3072 0C5.62391 0.000184854 0 5.38959 0 11.9992C0 18.6092 5.62391 23.9984 12.3072 23.9984C15.9168 23.9984 18.6414 22.8239 20.7722 20.6359C22.9611 18.4709 23.6364 15.4308 23.6364 12.9666C23.6364 12.195 23.5433 11.4005 23.4384 10.8132H12.3072V14.0145H20.2365C20.0036 16.0183 19.3632 17.3886 18.4201 18.3212C17.279 19.4614 15.4744 20.7165 12.3072 20.7165V20.7165Z" fill="white" fill-opacity="0.5"/>
</svg>
