<svg width="24" height="23" viewBox="0 0 24 23" fill="none" xmlns="http://www.w3.org/2000/svg">
<path d="M24 12C24 9.9229 23.4609 7.88137 22.4353 6.07511C21.4098 4.26885 19.9329 2.75971 18.1493 1.69533C16.3656 0.630938 14.3362 0.0477499 12.2596 0.00280912C10.183 -0.0421317 8.13031 0.452714 6.30228 1.43894C4.47425 2.42517 2.93352 3.869 1.83079 5.6292C0.728056 7.3894 0.101096 9.4057 0.0112352 11.4808C-0.0786254 13.556 0.371691 15.6189 1.31813 17.4679C2.26458 19.3168 3.67474 20.8884 5.41067 22.029L9.19566 16.2682C8.45687 15.7828 7.85672 15.114 7.45392 14.3271C7.05113 13.5402 6.85948 12.6622 6.89772 11.7791C6.93597 10.8959 7.20279 10.0378 7.6721 9.28866C8.14141 8.53954 8.79713 7.92506 9.57512 7.50534C10.3531 7.08561 11.2267 6.87501 12.1105 6.89414C12.9943 6.91326 13.858 7.16146 14.6171 7.61445C15.3762 8.06744 16.0047 8.70971 16.4411 9.47844C16.8776 10.2472 17.1071 11.116 17.1071 12H24Z" fill="white" fill-opacity="0.6"/>
<circle cx="14.2" cy="16" r="4" fill="white" fill-opacity="0.6"/>
</svg>
